<svg width="96" height="96" xmlns="http://www.w3.org/2000/svg" xmlns:xlink="http://www.w3.org/1999/xlink" xml:space="preserve" overflow="hidden"><defs><clipPath id="clip0"><rect x="408" y="198" width="96" height="96"/></clipPath></defs><g clip-path="url(#clip0)" transform="translate(-408 -198)"><path d="M456.025 208C435.049 207.997 418.043 224.999 418.04 245.975 418.037 266.951 435.039 283.957 456.015 283.96 476.991 283.963 493.997 266.961 494 245.985 494 245.983 494 245.981 494 245.979 494.009 225.013 477.021 208.009 456.055 208 456.045 208 456.035 208 456.025 208ZM479.143 252.356C478.589 254.36 477.776 256.284 476.725 258.078 474.635 261.628 471.675 264.588 468.125 266.678 466.33 267.73 464.405 268.544 462.4 269.1 458.225 270.237 453.821 270.237 449.646 269.1 441.512 266.848 435.157 260.493 432.906 252.359 431.767 248.184 431.767 243.779 432.906 239.604 435.159 231.47 441.514 225.114 449.648 222.86 455.88 221.137 462.545 222.01 468.124 225.279 473.521 228.436 477.474 233.574 479.143 239.6 480.282 243.775 480.282 248.18 479.143 252.355Z" fill="#FFFFFF"/><path d="M473.618 235.692C471.848 232.671 469.332 230.155 466.311 228.385 464.784 227.497 463.149 226.807 461.447 226.334 457.898 225.359 454.151 225.359 450.602 226.334 448.9 226.807 447.266 227.497 445.739 228.385 442.718 230.156 440.202 232.671 438.431 235.692 437.543 237.219 436.854 238.853 436.381 240.555 435.405 244.105 435.405 247.852 436.381 251.402 436.854 253.104 437.543 254.738 438.431 256.265 440.202 259.286 442.718 261.802 445.739 263.572 447.265 264.46 448.899 265.15 450.6 265.623 454.149 266.598 457.896 266.598 461.445 265.623 463.147 265.15 464.782 264.46 466.309 263.572 469.33 261.802 471.846 259.285 473.616 256.264 474.505 254.737 475.195 253.102 475.669 251.4 476.644 247.85 476.644 244.104 475.669 240.554 475.195 238.853 474.506 237.219 473.618 235.692ZM462.579 239.02C461.864 238.584 461.089 238.254 460.279 238.041 459.466 237.828 458.629 237.721 457.789 237.722 456.673 237.705 455.565 237.915 454.533 238.339 453.605 238.724 452.771 239.304 452.086 240.039 451.404 240.789 450.879 241.668 450.543 242.625 449.839 244.692 449.82 246.931 450.49 249.009 450.794 249.913 451.279 250.746 451.916 251.456 452.555 252.154 453.34 252.703 454.216 253.063 455.203 253.461 456.259 253.656 457.323 253.637 458.244 253.639 459.163 253.528 460.057 253.307 460.952 253.084 461.805 252.714 462.579 252.212L462.579 255.489C461.652 255.954 460.663 256.283 459.642 256.467 458.624 256.651 457.592 256.744 456.557 256.744 455.09 256.767 453.633 256.499 452.269 255.957 451.045 255.464 449.942 254.714 449.034 253.757 448.13 252.784 447.434 251.636 446.991 250.384 446.503 249.004 446.262 247.548 446.279 246.084 446.263 244.519 446.534 242.965 447.079 241.498 447.58 240.15 448.347 238.916 449.334 237.87 450.324 236.836 451.52 236.02 452.845 235.476 454.301 234.885 455.86 234.591 457.431 234.614 458.31 234.614 459.188 234.674 460.059 234.795 460.926 234.914 461.774 235.147 462.581 235.487Z" fill="#FFFFFF"/></g></svg>