<svg width="96" height="96" xmlns="http://www.w3.org/2000/svg" xmlns:xlink="http://www.w3.org/1999/xlink" xml:space="preserve" overflow="hidden"><defs><clipPath id="clip0"><rect x="251" y="198" width="96" height="96"/></clipPath></defs><g clip-path="url(#clip0)" transform="translate(-251 -198)"><path d="M299.025 208C278.049 207.997 261.043 224.999 261.04 245.975 261.037 266.951 278.039 283.957 299.015 283.96 319.991 283.963 336.997 266.961 337 245.985 337 245.983 337 245.981 337 245.979 337.009 225.013 320.021 208.009 299.055 208 299.045 208 299.035 208 299.025 208ZM322.143 252.356C321.589 254.36 320.776 256.284 319.725 258.078 317.635 261.628 314.675 264.588 311.125 266.678 309.33 267.73 307.405 268.544 305.4 269.1 301.225 270.237 296.821 270.237 292.646 269.1 284.512 266.848 278.157 260.493 275.906 252.359 274.767 248.184 274.767 243.779 275.906 239.604 278.159 231.47 284.514 225.114 292.648 222.86 298.88 221.137 305.545 222.01 311.124 225.279 316.521 228.436 320.474 233.574 322.143 239.6 323.282 243.775 323.282 248.18 322.143 252.355Z"/><path d="M316.618 235.692C314.848 232.671 312.332 230.155 309.311 228.385 307.784 227.497 306.149 226.807 304.447 226.334 300.898 225.359 297.151 225.359 293.602 226.334 291.9 226.807 290.266 227.497 288.739 228.385 285.718 230.156 283.202 232.671 281.431 235.692 280.543 237.219 279.854 238.853 279.381 240.555 278.405 244.105 278.405 247.852 279.381 251.402 279.854 253.104 280.543 254.738 281.431 256.265 283.202 259.286 285.718 261.802 288.739 263.572 290.265 264.46 291.899 265.15 293.6 265.623 297.149 266.598 300.896 266.598 304.445 265.623 306.147 265.15 307.782 264.46 309.309 263.572 312.33 261.802 314.846 259.285 316.616 256.264 317.505 254.737 318.195 253.102 318.669 251.4 319.644 247.85 319.644 244.104 318.669 240.554 318.195 238.853 317.506 237.219 316.618 235.692ZM305.579 239.02C304.864 238.584 304.089 238.254 303.279 238.041 302.466 237.828 301.629 237.721 300.789 237.722 299.673 237.705 298.565 237.915 297.533 238.339 296.605 238.724 295.771 239.304 295.086 240.039 294.404 240.789 293.879 241.668 293.543 242.625 292.839 244.692 292.82 246.931 293.49 249.009 293.794 249.913 294.279 250.746 294.916 251.456 295.555 252.154 296.34 252.703 297.216 253.063 298.203 253.461 299.259 253.656 300.323 253.637 301.244 253.639 302.163 253.528 303.057 253.307 303.952 253.084 304.805 252.714 305.579 252.212L305.579 255.489C304.652 255.954 303.663 256.283 302.642 256.467 301.624 256.651 300.592 256.744 299.557 256.744 298.09 256.767 296.633 256.499 295.269 255.957 294.045 255.464 292.942 254.714 292.034 253.757 291.13 252.784 290.434 251.636 289.991 250.384 289.503 249.004 289.262 247.548 289.279 246.084 289.263 244.519 289.534 242.965 290.079 241.498 290.58 240.15 291.347 238.916 292.334 237.87 293.324 236.836 294.52 236.02 295.845 235.476 297.301 234.885 298.86 234.591 300.431 234.614 301.31 234.614 302.188 234.674 303.059 234.795 303.926 234.914 304.774 235.147 305.581 235.487Z"/></g></svg>