<svg width="96" height="96" xmlns="http://www.w3.org/2000/svg" xmlns:xlink="http://www.w3.org/1999/xlink" xml:space="preserve" overflow="hidden"><defs><clipPath id="clip0"><rect x="715" y="312" width="96" height="96"/></clipPath></defs><g clip-path="url(#clip0)" transform="translate(-715 -312)"><path d="M800.5 387.6 788 375.1C786.3 373.4 784 372.8 781.8 373.2L777.4 368.8C781.3 363.8 783.6 357.4 783.6 350.6 783.6 334.1 770.1 320.6 753.6 320.6 737.1 320.6 723.6 334.1 723.6 350.6 723.6 367.1 737.1 380.6 753.6 380.6 760.4 380.6 766.7 378.3 771.8 374.4L776.2 378.8C775.8 381 776.4 383.3 778.1 385L790.6 397.5C792 398.9 793.8 399.6 795.6 399.6 797.4 399.6 799.2 398.9 800.6 397.5 803.2 394.7 803.2 390.3 800.5 387.6ZM753.5 374.5C740.3 374.5 729.5 363.7 729.5 350.5 729.5 337.3 740.3 326.5 753.5 326.5 766.7 326.5 777.5 337.3 777.5 350.5 777.5 363.7 766.7 374.5 753.5 374.5Z" fill="#FFFFFF"/></g></svg>