<svg xmlns="http://www.w3.org/2000/svg" xmlns:xlink="http://www.w3.org/1999/xlink" width="1090" height="1090" viewBox="0 0 1090 1090"><defs><style>.a{fill:#fff;}.b{fill:url(#a);}.c{fill:#213a8e;}</style><radialGradient id="a" cx="545" cy="545" r="607.4642" gradientUnits="userSpaceOnUse"><stop offset="0" stop-color="#ffec00"/><stop offset="0.1321" stop-color="#fee701"/><stop offset="0.2969" stop-color="#fcd704"/><stop offset="0.479" stop-color="#f8be08"/><stop offset="0.6736" stop-color="#f39a0e"/><stop offset="0.8759" stop-color="#ed6d16"/><stop offset="1" stop-color="#e84e1b"/></radialGradient></defs><circle class="a" cx="545" cy="545" r="545"/><path class="b" d="M545,30.2839A513.0975,513.0975,0,0,0,345.3279,70.4556C370.35,75.6459,395.067,80.87,395.067,80.87c71.37-14.7086,145.914-.7917,172.1739,1.55s70.7877,6.6288,90.4982,7.3449,55.85,38.1484,74.3155,56.6847,78.7819,68.4575,78.7819,68.4575c-6.05,24.3763-57.6248,3.612-57.6248,3.612l-3.4266,6.0875c-27.5568,17.6044-57.0111-13.3874-67.53-26.258a14.317,14.317,0,0,0-10.5478-5.2669,206.738,206.738,0,0,1-42.1666-6.6c-17.3965-4.4405-36.7786-19.0071-56.0141-13.6709-21.6116,5.9949-39.87,11.6963-53.7523,13.0738a48.29,48.29,0,0,0-20.7042,6.9415c-7.5649,4.6518-2.6563,11.4923,5.8959,13.8852,122.3131,34.229,85.6374,89.8972,75.7955,89.8462-17.6562-.0914-35.0744-29.4875-116.9194-34.0838-71.9265-4.04-129.3408-40.1609-138.5714-53.4905-6.7355-9.727-73.343-45.0357-105.9884-62.5235C103.9248,240.8506,30.284,384.3189,30.284,545c0,284.27,230.4462,514.716,514.7161,514.716a512.8811,512.8811,0,0,0,207.5359-43.5923c-28.1224-5.67-62.5264-12.2869-62.5264-12.2869-71.37,14.7085-145.9143.7917-172.1742-1.5495s-70.7878-6.6288-90.498-7.3449-55.8495-38.1484-74.3155-56.6848S274.24,869.8,274.24,869.8c6.0492-24.3765,57.6245-3.6121,57.6245-3.6121l3.4263-6.0875c27.557-17.6046,57.0115,13.3872,67.5306,26.258a14.3168,14.3168,0,0,0,10.5477,5.2669,206.7194,206.7194,0,0,1,42.1666,6.5994c17.3965,4.4405,36.7788,19.0071,56.0139,13.671,21.6114-5.9948,39.87-11.6963,53.7521-13.0738a48.2947,48.2947,0,0,0,20.7046-6.9415c7.5644-4.6519,2.6559-11.4923-5.8959-13.8852-122.3132-34.229-85.6379-89.8972-75.7957-89.8462,17.6565.0914,35.0743,29.4874,116.9194,34.0837,71.9265,4.04,129.3408,40.1609,138.5714,53.4905,7.25,10.47,83.92,50.6068,112.8773,66.2231C986.9173,847.5383,1059.716,704.7719,1059.716,545,1059.716,260.73,829.27,30.2839,545,30.2839Z"/><path class="c" d="M131.7231,667.4524a67.0669,67.0669,0,0,0,9.1012-4.7554q17.4266-10.7475,36.6607-38.4989l.524.6442q9.048,11.0946,15.3635,16.5212a78.7237,78.7237,0,0,0,21.06,12.3892l5.9736.39a6.1027,6.1027,0,0,0,3.27-.7359,19.1217,19.1217,0,0,0,6.791,12.1241q7.2731,5.7911,22.1117,5.7778a48.4947,48.4947,0,0,0,14.6935-2.2323q15.59-4.9215,28.48-20.7115,15.5811-19.1673,15.5983-33.9453,0-10.582-5.9707-17.6682-5.973-7.0848-16.3939-7.0822-8.8689,0-21.7137,4.0849-7.5168,2.3934-16.3945,6.1922-24.0492,10.2923-24.031,18.0565a6.14,6.14,0,0,0,2.57,5.0007c.7254.5277,1.4839,1.1388,2.3527,1.8053q-3.0957,5.3739-5.8628,10.5825a24.4948,24.4948,0,0,0-2.6246,9.6879l-.0693-.0275-.05.0438a6.1509,6.1509,0,0,0-.9484-.3431,52.6409,52.6409,0,0,1-20.157-13.7772,86.5772,86.5772,0,0,1-15.4531-23.14q2.6029-7.5836,4.9211-14.9715a55.75,55.75,0,0,0,2.3529-16.7781q0-17.7493-8.0708-28.5568-4.1583-5.5333-7.799-7.03a6.8856,6.8856,0,0,0-2.6252-.5543q-4.3957,0-9.226,11.5836a59.7112,59.7112,0,0,0-4.8124,23.1675,83.39,83.39,0,0,0,.9037,12.8607,64.21,64.21,0,0,0,2.2437,9.8892,20.5748,20.5748,0,0,0-5.4658-1.8039,45.2392,45.2392,0,0,0-8.0709-.5853,69.5908,69.5908,0,0,0-19.233,2.6413,73.8246,73.8246,0,0,0-28.8618,16.3054q-19.4889,17.3721-19.507,34.7229a22.3954,22.3954,0,0,0,6.7679,16.6659c4.4881,4.4732,10.93,6.6951,19.2535,6.6951A56.536,56.536,0,0,0,131.7231,667.4524ZM244.255,639.5581a62.0158,62.0158,0,0,1,15.5984-18.36q3.6987-3.6886,7.4192-7.4044l4.5594-4.5691q6.2442-5.5833,16.3938-5.5825c2.4255,0,4.0539.5557,4.922,1.6946a6.8524,6.8524,0,0,1,1.3032,4.3039c0,9.5575-4.5966,19.8914-13.7883,30.9192a59.7657,59.7657,0,0,1-13.39,12.1528,37.19,37.19,0,0,1-20.4107,6.208,5.911,5.911,0,0,1-5.07-2.3068,8.684,8.684,0,0,1-1.6976-5.2771C240.0942,648.67,241.4684,644.7528,244.255,639.5581Zm-69.1227-69.5845c1.05-5.6379,1.845-8.75,2.3527-9.2779a3.5875,3.5875,0,0,1,.524-.427,1.6359,1.6359,0,0,1,1.4313-.2679c.6145.1946,1.0112.75,1.1914,1.6945a64.6351,64.6351,0,0,1,1.8109,14.39,38.1139,38.1139,0,0,1-1.1949,9.1936c-.7592,3.1956-1.519,5.9724-2.2062,8.391a1.2082,1.2082,0,0,1-1.0325,1.3385,2.5951,2.5951,0,0,1-.524.048c-1.05,0-1.7744-.8323-2.2076-2.4986q-.6524-2.4991-1.194-5.0014a37.2307,37.2307,0,0,1-.5078-6.8876A81.8511,81.8511,0,0,1,175.1323,569.9736Zm-74.08,80.5574q0-7.79,7.0191-16.3621A54.666,54.666,0,0,1,123.67,621.0035q5.0859-2.8562,8.0536-4.5487,3.8775-2.21,4.1794-2.4232c6.7306-3.3345,12.3054-5.0009,16.6108-5.0009a11.241,11.241,0,0,1,6.37,2.5c2.3519,1.6669,3.5106,3.2234,3.5106,4.6944,0,.9189-2.7515,4.8329-8.2881,11.75-5.5734,6.9178-9.987,11.8617-13.2813,14.7775a88.98,88.98,0,0,1-9.1012,6.58q-2.6308,1.664-5.4468,3.1982c-6.7676,3.7236-12.4144,5.5839-16.9006,5.5839a7.652,7.652,0,0,1-5.8628-2.805C101.8831,653.447,101.0527,651.865,101.0527,650.531Z"/><path class="c" d="M849.0776,379.7205A96.4076,96.4076,0,0,1,834.6,376.7331c-5.3439-1.9062-6.1813-7.9367-1.8714-11.6265q.0486-.0417.0979-.0829s34.3953-23.45,71.857,3.6663a5.2252,5.2252,0,0,0,1.8683.9185c.7769.2058,1.5066.3744,2.2317.5824h6.3834c3.7369,0,5.8138-1.375,6.3334-4.17l.7251-4.5063c0-5.5877-5.3219-16-17.9968-19.0214-44.3509-10.5707-70.0882,1.8384-70.0882,1.8384-15.856,5.7449-21.6252,14.5269-26.6352,19.1155a37.82,37.82,0,0,0-7.4542-16.1577q-8.5641-10.6366-23.5107-10.636-12.7215,0-31.141,6.1371-10.78,3.5941-23.5108,9.2977-34.4851,15.4541-34.4622,27.1145a9.3628,9.3628,0,0,0,3.6836,7.5088c1.0388.7915,2.1284,1.7086,3.3734,2.7109q-4.4356,8.07-8.406,15.8922a34.1785,34.1785,0,0,0-2.2168,5.9075c-.4564-1.7941-.8784-3.6009-1.4172-5.3652-3.4767-11.3881-7.7853-19.6894-13.0263-24.8612,2.9585-2.5877,5.7609-6.5062,8.3553-11.68,2.6477-5.2133,3.9445-8.7177,3.9445-10.51,0-5.5906-2.6991-10.2208-8.0465-13.9332a29.2178,29.2178,0,0,0-16.9687-5.5472,50.3355,50.3355,0,0,0-13.6,1.848,57.4405,57.4405,0,0,0-21.0707,11.332c-10.691,8.8025-16.0381,18.23-16.0381,28.2,0,5.5877,1.5062,10.0941,4.4633,13.5136,3.9981,4.3818,10.2243,6.5918,18.6332,6.5918a70.29,70.29,0,0,0,14.0123-1.3128q1.4326-.2934,2.8027-.6481a61.1244,61.1244,0,0,0,12.664-4.6724q3.3475,0,5.6062,9.0105a80.8619,80.8619,0,0,1,2.23,19.7732v32.9531q0,15.0171-9.7029,29.7008a41.7683,41.7683,0,0,1-13.6,13.547,34.8849,34.8849,0,0,1-18.06,4.7245c-7.4744,0-13.7013-2.3385-18.6328-7.0517a22.7072,22.7072,0,0,1-7.4734-17.227c0-3.7947,1.7636-7.884,5.242-12.2636a97.49,97.49,0,0,1,8.2017-8.092,109.4415,109.4415,0,0,1,21.4324-15.7269q4.8631-2.6559,9.29-4.6379a94.752,94.752,0,0,1,9.1361-3.58c1.244-1.4193,1.8662-2.5039,1.8662-3.2946a5.1716,5.1716,0,0,0-1.8662-3.6293,40.5341,40.5341,0,0,0-4.6717-3.7124,9.4543,9.4543,0,0,0-4.4644-1.9552l-.209-.0064q-8.95,0-22.73,7.51a128.8715,128.8715,0,0,0-17.5426,11.3444,68.5145,68.5145,0,0,0-16.7649,16.185c-5.449,7.5919-8.2006,14.8076-8.2006,21.5662q0,17.0837,16.0381,29.3668A53.4648,53.4648,0,0,0,626.9107,520.07a66.6139,66.6139,0,0,0,16.1918-1.8778,50.5276,50.5276,0,0,0,28.7546-19.1053c10.1-13.3961,15.3272-31.558,15.747-54.3092a25.7355,25.7355,0,0,0,5.0124,5.7967q10.4355,8.6968,31.7121,8.6773A66.6906,66.6906,0,0,0,745.4,455.8991q22.3588-7.3929,40.8464-31.1051,19.3057-24.8648,21.9527-44.8079c.0032-.0234.0014-.0455.0046-.0689,1.8087,7.6164,13,10.9516,27.3162,14.97,34.0981,9.3842,54.97,14.3833,62.1066,16.6843,3.2636,1.6281,11.0556,4.0394,11.2759,9.0241,1.046,23.6689-50.4028,21.4-67.2263,11.9583-7.3942-4.15-12.4031-6.0073-14.8953-6.0073s-6.3087.4943-8.9553,2.58c-2.5969,2.1288-4.6055,7.3638-4.6055,9.1979,0,5.9658,8.2,11.5975,24.5979,16.7693,13.1846,4.2131,26.0213,3.5318,34.4292,3.5318,13.9608,0,27.61-3.84,41.0526-11.5577q20.1629-11.5086,20.1366-25.0265a28.7494,28.7494,0,0,0-17.4873-26.4652C883.7771,381.7887,861.0128,380.8572,849.0776,379.7205Zm-223.2125,2.69c0-6.1726,4.8336-12.0925,13.2933-17.89q2.0064-1.3448,3.9441-2.4478,8.8809-5.0613,16.2446-5.0621s6.8458.0392.1245,9.9479S627.4588,393.0118,625.8651,382.41Zm28.24-5.3361,121.3466-19.4371c3.4761,0,5.811.8334,7.0582,2.5433a10.6353,10.6353,0,0,1,1.8686,6.4665c0,14.3491-6.5918,29.8669-19.7753,46.426A87.2414,87.2414,0,0,1,745.4,431.3251q-13.8815,9.3255-29.2717,9.3231a8.3216,8.3216,0,0,1-7.2665-3.4642,13.4545,13.4545,0,0,1-2.44-7.9256c0-4.0041,1.4221-10.1955,5.9689-17.687C747.5924,353.5715,775.4514,357.6369,775.4514,357.6369Z"/><path class="c" d="M573.7725,351.0414a17.065,17.065,0,0,0,9.2124,4.1761l2.9038.3613c2.9183.209,4.9423-1.1351,6.0735-3.95a30.2482,30.2482,0,0,1,1.0368-3.4432,13.2759,13.2759,0,0,0,.6582-4.076c0-3.8241-1.79-7.6866-5.4152-11.634-3.6244-3.9091-7.7678-5.8818-12.5221-5.8818h-4.3783c-3.8618,0-5.7912,1.72-5.7912,5.1253a8.984,8.984,0,0,1-.8,1.974,6.46,6.46,0,0,0-.8478,2.8546c0,2.8169,2.0223,6.429,6.0721,10.881Q571.961,349.4374,573.7725,351.0414Z"/><path class="c" d="M362.637,347.75c.15.42.144,1.0959.2991,1.76-2.4322-2.0648-6.3944-3.1622-12.0811-3.1622H334.7134a1.6743,1.6743,0,0,1-1.6971-1.7568q.3546-6.8952,2.58-37.6505c.4674-6.9239.7276-15.4592.7276-25.692a35.5033,35.5033,0,0,0-7.8383-22.5142q-9.3408-11.5593-23.51-11.5821c-9.6813,0-21.8616,3.3786-33.3727,13.9249-54.6956,50.1113-73.7558,95.293-74.74,97.9928-.26.2155-.0164,1.1963-2.6618,1.6479a63.8156,63.8156,0,0,0-22.1962,4.0946c-5.3439,2.0453-10.7865,5.9878-12.5351,9.9753-10.394,23.7035,9.2532,23.5767,15.084,20.5346.9-.47,4.1378-2.2657,3.7021-1.3487-7.99,16.816-11.5842,22.5743-14.2447,29.0137-6.4846,15.0252-9.704,23.865-9.704,26.6077,0,3.1339,2.2835,6.4885,6.9016,10.1438,4.62,3.66,8.5129,5.489,11.732,5.489a14.0053,14.0053,0,0,0,10.846-5.0081,40.7548,40.7548,0,0,0,6.4875-10.93c2.1284-4.8328,10.6878-27.587,14.5716-37.4981,4.968-12.6787,8.9068-22.0146,10.6907-23.5747.5586-.4885,21.5916-5.9684,41.3927-8.4978,16.1628-2.0646,31.1428-1.22,36.4851-1.8768a1.6761,1.6761,0,0,1,1.8733,1.6706q.1875,11.4657,2.4729,41.9078c.3642,4.3984.521,10.0156.521,16.8976a264.969,264.969,0,0,0,1.4516,27.3879c.9867,9.4921,2.4922,16.5466,4.5677,21.12,2.0755,4.5716,6.1758,6.88,12.248,6.88h2.18a15.8539,15.8539,0,0,0,8.9785-3.1346c3.0107-2.0926,4.93-4.2245,5.657-6.4026a24.32,24.32,0,0,0,1.0913-7.6643v-3.7433c0-1.8732-.1554-5.0514-.52-9.5368-.31-4.4514-.6706-8.26-.98-11.38a1.2639,1.2639,0,0,1-.0071-.1348q-.0072-4.8308-1.0906-33.25-1.1658-28.61-1.1407-43.9373c0-3.7443.7276-6.3582,2.2314-7.8379,1.5062-1.437,3.7368-2.1759,6.6947-2.1759a51.7408,51.7408,0,0,1,8.2009.9558,57.5711,57.5711,0,0,0,8.2013.916c3.9959,0,6.5911-1.3508,7.8382-4.05l.31-.7031a17.3554,17.3554,0,0,0,1.4193-4.9492,17.4276,17.4276,0,0,1,1.4874,4.546s4.174,52.2711-2.9067,88.06c-.3438,1.7378,1.2965,3.1342,2.18,4.3775,2.4911,3.504,6.6951,5.2566,12.6633,5.2566,4.5151,0,7.474-1.211,8.9771-3.5875,0,0,32.9621-93.9616,35.3842-78.0334,0,22.359-.1947,40.5746,2.2974,50.1683s7.2133,14.3913,14.1678,14.3913c4.2042,0,8.2-2.8791,11.9367-8.6755,1.2442-2.2068,3.7232-6.4024,7.391-12.5451.02-.0338.0446-.0678.0653-.1012a486.7686,486.7686,0,0,1,29.4456-43.1252q5.995-7.51,10.4312-7.5078,7.0863,0,27.2476,41.5019,20.0868,41.55,24.6032,41.5495l3.2667,1.6769c4.4641,0,8.3471-4.0235,8.3471-7.6106l-2.6636-9.3751a2.233,2.233,0,0,0-.1448-.5608c-6.04-17.0823-13.2128-34.1442-22.9515-50.9452-.0193-.0334-.0334-.0716-.0511-.1059q-20.85-40.4325-40.9738-40.41-12.691,0-26.4679,15.017-5.2161,5.3807-21.6435,28.783V376.24q0-25.216-5.6055-33.2871-5.6079-8.0718-16.0374-8.0913c-3.7386,0-9.78,3.1553-15.3119,13.8061-1.77,3.4074-10.0072,27.6064-16.8088,39.4316-.8161,1.4187-3.4007.993-3.1629-.6263.9534-6.4933,3.4084-23.9239-1.6705-38.8053-3.182-9.3237-7.94-13.8061-13.39-13.8061C375.7154,334.8612,358.8312,337.1072,362.637,347.75Zm-58.7535-68.6786a12.5116,12.5116,0,0,0-3.3724,9.1l-2.1756,57.9954c-.0312.8313-.6354,1.692-1.464,1.6176-7.24-.65-44.4879,3.612-56.7912,7.1958-1.3461.3921-2.3362-1.3541-1.6372-2.5694q7.2722-12.6435,12.2434-20.7812,7.7055-12.4749,12.82-18.1143,1.6067-1.7568,8.0962-9.4158,3.8767-4.5638,9.5034-11.2111c.0308-.0363.0665-.0758.1-.11,10.2509-10.5905,18.6414-15.8847,25.2749-15.8847C306.22,276.8935,305.3369,277.6335,303.8835,279.0716Z"/><path class="c" d="M585.6885,438.1592c.9432,6.3826-3.3652,12.29-8.8507,14.2612s-9.09.8364-10.8817-.0693c-1.8058-.9512-3.3315-3.6474-4.6465-8.158-.3474-1.1921-.5565-5.35-.6179-12.4262-.0138-7.0968.0259-14.7274.1807-22.87q1.8967-23.3192,2.48-26.5608c.9941-6.8938,3.3323-10.98,7.0067-12.3a25.573,25.573,0,0,1,9.2305-.7113c6.1293,1.136,8.9928,4.8379,10.1832,8.9219C589.7732,378.2467,583.0005,419.97,585.6885,438.1592Z"/><path class="c" d="M509.3288,691.4556c8.8183,5.6514,12.0519,13.4347,12.0519,20.1782,0,5.9342-3.9,10.6328-12.0519,12.41-69.117,15.0693-135.9782-4.4048-148.1162-10.4143-8.7416-4.328-15.9914-21.6871-29.525-25.1214a8.1867,8.1867,0,0,0-2.2783-.1282,40.0614,40.0614,0,0,0-22.9879,6.7981c-6.7088,4.4779-10.0647,10.1433-10.0647,16.8346,0,5.9336,4.1639,12.1385,12.55,18.6125a86.9533,86.9533,0,0,0,17.0573,10.0027c24.6193,10.4048,119.4414,37.4336,209.0243,9.3669,14.4526-4.5281,22.7068-14.1183,26.5782-23.89l.0182.0188.153-.2628a44.254,44.254,0,0,0,12.2662,14.26q17.1442,13.3513,48.8313,13.3806a220.6586,220.6586,0,0,0,35.9721-2.6991q6.39-1.058,12.3014-2.5352,20.9672-5.2589,25.8443-12.1931a6.1859,6.1859,0,0,0,1.3664-3.5078c0-3.0737-1.8625-4.9618-5.59-5.6089a61.21,61.21,0,0,0-10.3594-.9714,2.5709,2.5709,0,0,0-.3025.0176c-7.3956.8555-14.5494,1.6594-21.46,2.3557q-.8632.0863-1.8006.1656-10.48.8914-30.1319.9136H616.1872c-9.2568,0-16.2146-1.2942-20.999-3.8846-6.5231-3.6159-9.8154-9.9282-9.8154-18.9921q0-7.7685,4.6595-17.48A111.7189,111.7189,0,0,1,600.88,671.617a1.7811,1.7811,0,0,1,2.8383.0306,34.2214,34.2214,0,0,0,11.103,9.504c5.0934,2.7507,12.3621,4.1,21.8684,4.1a81.3158,81.3158,0,0,0,22.1172-3.1163q17.61-4.9563,35.2881-17.8173,28.7965-20.9616,28.7641-41.868c0-6.9609-1.8536-14.4415-8.6877-19.5665-6.8338-5.18-16.1872-7.0461-24.7977-6.3852-72.8486,5.592-114.1264,58.7027-123.1981,76.56a95.8376,95.8376,0,0,0-7.8728,20.1774l.0064.0113-.0171.0266.0107-.0379q-7.141-13.6992-23.5024-28.1641a187.7933,187.7933,0,0,0-45.5391-29.8339L456.892,620.6253,443.7232,614.68c30.1073-8.4583,69.644-25.5734,69.644-25.5734q33.4554-14.3232,33.4862-36.7947c0-12.1393-14.6583-29.08-48.211-37.66-126.3331-32.3072-217.9666,6.1673-223.568,9.1547s-3.6931,7.086-3.6931,7.086c0,1.8881,2.6717,5.8255,8.0145,11.9238,5.2508,5.87,9.8561,8.9387,13.9313,9.1093a2.3019,2.3019,0,0,0,.7159-.0914c14.7894-4.1176,29.5183-8.0794,44.3112-11.9314,13.6129-3.5612,25.0319-5.49,34.1618-5.7865a1.9924,1.9924,0,0,1,1.9483,2.4182q-10.315,52.6464-13.806,83.5416a526.9565,526.9565,0,0,0-3.541,58.2685s-2.9068,12.86,16.5266,14.6757a12.5258,12.5258,0,0,0,3.5393.3765,14.8049,14.8049,0,0,0,8.9627-3.0216,18.4513,18.4513,0,0,0,6.7671-11.6539l7.0092-37.6582S435.88,644.3838,509.3288,691.4556Zm-7.127-139.3763a1.9559,1.9559,0,0,1,.3722,3.3837q-15.428,10.5581-45.682,18.1442-1.6545.417-3.3541.8251-21.2436,4.31-42.1625,8.3377a1.9977,1.9977,0,0,1-2.2759-2.4243q7.5618-34.1026,8.2181-44.5039a1.8958,1.8958,0,0,1,1.9079-1.7587S451.5,530.3125,502.2018,552.0793Zm171.08,93.6233a106.4476,106.4476,0,0,1-14.4748,8.4221q-12.5355,5.9235-23.4213,5.9307a11.2106,11.2106,0,0,1-7.58-2.6973c-.3109-.27-1.8018-2.1048-4.4729-5.45a200.6265,200.6265,0,0,1,30.7524-19.369q2.3958-1.23,4.7217-2.3245c8.72-4.105,19.2145-8.0909,26.457-9.3555a5.04,5.04,0,0,1,5.3329,7.4508C687.6665,633.2643,680.42,640.8268,673.2816,645.7026Z"/><path class="c" d="M959.875,744.5985c-9.6446-1.2166-13.4074-21.0332-29.4363-56.8572-16.0914-35.7725-26.9751-50.5615-32.63-50.5615q-5.3106,0-12.4865,9.7109S860.9,681.9739,841.1489,719.0262c-4.4719,7.4994-9.257,11.2219-14.2879,11.2219q-12.4881,0-16.96-18.6143-4.4739-18.6159-4.4742-61.99s-4.1938-2.2321-11.6623,17.1861-28.9686,80.8445-28.9686,80.8445c-1.8013,3.0755-5.3437,4.6411-10.7478,4.6411-7.1448,0-12.1776-2.2668-15.16-6.7987-2.9807-4.5318-6.4459-11.4944-4.473-20.341,12.7219-57.0429,0-116.6437,0-116.6437,0-2.3215,1.9263-5.6665,5.7783-10.091,3.9146-4.37,7.1447-6.5809,9.8779-6.5809q9.7866,0,16.03,17.858a107.3833,107.3833,0,0,1,6.2732,35.6627q15.1908-28.73,19.6329-35.6627c7.7664-11.9238,13.8531-17.858,18.326-17.858a21.5244,21.5244,0,0,1,19.1986,10.4668q6.71,10.4376,6.7094,43.0539v17.0487Q855.9049,632.1615,862.15,625.2q16.4932-19.4209,31.6848-19.4213c16.0277,0,34.856,16.2743,51.5071,51.1822,8.6541,20.9226,19.3748,40.1077,26.4619,61.9121a27.7818,27.7818,0,0,1,1.1618,12.912C972.0348,737.6072,968.9674,744.2372,959.875,744.5985Z"/></svg>